<?xml version="1.0" encoding="UTF-8" standalone="no"?>
<!-- Generator: Adobe Illustrator 28.2.0, SVG Export Plug-In . SVG Version: 6.00 Build 0)  -->

<svg
   version="1.1"
   id="Layer_1"
   x="0px"
   y="0px"
   viewBox="0 0 1500 900"
   xml:space="preserve"
   sodipodi:docname="Smart_Sweeper.svg"
   inkscape:version="1.4.2 (ebf0e940d0, 2025-05-08)"
   width="1500"
   height="900"
   xmlns:inkscape="http://www.inkscape.org/namespaces/inkscape"
   xmlns:sodipodi="http://sodipodi.sourceforge.net/DTD/sodipodi-0.dtd"
   xmlns="http://www.w3.org/2000/svg"
   xmlns:svg="http://www.w3.org/2000/svg"><defs
   id="defs1"><marker
     style="overflow:visible"
     id="marker28"
     refX="0"
     refY="0"
     orient="auto-start-reverse"
     inkscape:stockid="Wide, rounded arrow"
     markerWidth="1"
     markerHeight="1"
     viewBox="0 0 1 1"
     inkscape:isstock="true"
     inkscape:collect="always"
     preserveAspectRatio="xMidYMid"><path
       style="fill:none;stroke:context-stroke;stroke-width:1;stroke-linecap:round"
       d="M 3,-3 0,0 3,3"
       transform="rotate(180,0.125,0)"
       sodipodi:nodetypes="ccc"
       id="path28" /></marker><marker
     style="overflow:visible"
     id="ArrowWideRounded"
     refX="0"
     refY="0"
     orient="auto-start-reverse"
     inkscape:stockid="Wide, rounded arrow"
     markerWidth="1"
     markerHeight="1"
     viewBox="0 0 1 1"
     inkscape:isstock="true"
     inkscape:collect="always"
     preserveAspectRatio="xMidYMid"><path
       style="fill:none;stroke:context-stroke;stroke-width:1;stroke-linecap:round"
       d="M 3,-3 0,0 3,3"
       transform="rotate(180,0.125,0)"
       sodipodi:nodetypes="ccc"
       id="path13" /></marker></defs><sodipodi:namedview
   id="namedview1"
   pagecolor="#ffffff"
   bordercolor="#000000"
   borderopacity="0.25"
   inkscape:showpageshadow="2"
   inkscape:pageopacity="0.0"
   inkscape:pagecheckerboard="0"
   inkscape:deskcolor="#d1d1d1"
   inkscape:zoom="0.43294271"
   inkscape:cx="834.98346"
   inkscape:cy="617.86466"
   inkscape:window-width="1600"
   inkscape:window-height="874"
   inkscape:window-x="0"
   inkscape:window-y="0"
   inkscape:window-maximized="1"
   inkscape:current-layer="Layer_1"
   showguides="true" />
<rect
   style="font-variation-settings:'wght' 600;fill:#fbf5cf;fill-opacity:1;stroke:#000000;stroke-width:13.3333;stroke-linecap:round;stroke-linejoin:round;stroke-dasharray:none;stroke-opacity:1;paint-order:stroke fill markers"
   id="rect7"
   width="493.24365"
   height="666.73187"
   x="65.330284"
   y="181.20055"
   ry="10.827067" /><g
   id="g7"
   transform="translate(-6.702521,140.73209)"><circle
     style="font-variation-settings:'wght' 600;fill:#7d8289;fill-opacity:1;stroke:#000000;stroke-width:13.3333;stroke-linecap:round;stroke-linejoin:round;stroke-dasharray:none;stroke-opacity:1;paint-order:stroke fill markers"
     id="path1"
     cx="158.44121"
     cy="-620.91968"
     r="66.146912"
     transform="scale(1,-1)" /><circle
     style="font-variation-settings:'wght' 600;fill:#868a94;fill-opacity:1;stroke:#000000;stroke-width:6.66667;stroke-linecap:round;stroke-linejoin:round;stroke-dasharray:none;stroke-opacity:1;paint-order:stroke fill markers"
     id="circle1"
     cx="158.44121"
     cy="-620.91968"
     r="56.487289"
     transform="scale(1,-1)" /><path
     id="rect1"
     style="font-variation-settings:'wght' 600;fill:#868a94;fill-opacity:1;stroke:#000000;stroke-width:6.66667;stroke-linecap:round;stroke-linejoin:round;stroke-dasharray:none;stroke-opacity:1;paint-order:stroke fill markers"
     d="m 134.91736,623.43237 c -9.2946,0 -16.77642,-7.48181 -16.77642,-16.7764 v -25.31766 a 56.487288,56.487288 0 0 1 40.25238,-16.90538 h 0.0963 a 56.487288,56.487288 0 0 1 40.25238,16.90538 v 25.31766 c 0,9.29459 -7.48354,16.7764 -16.77813,16.7764 z" /><circle
     style="font-variation-settings:'wght' 600;fill:#868a94;fill-opacity:1;stroke:#000000;stroke-width:6.66667;stroke-linecap:round;stroke-linejoin:round;stroke-dasharray:none;stroke-opacity:1;paint-order:stroke fill markers"
     id="path2"
     cx="158.44061"
     cy="-621.67151"
     r="6.7658644"
     transform="scale(1,-1)" /><rect
     style="font-variation-settings:'wght' 600;fill:#868a94;fill-opacity:1;stroke:#000000;stroke-width:6.66667;stroke-linecap:round;stroke-linejoin:round;stroke-dasharray:none;stroke-opacity:1;paint-order:stroke fill markers"
     id="rect2"
     width="39.655312"
     height="19.065054"
     x="138.61353"
     y="-661.9328"
     ry="9.532527"
     transform="scale(1,-1)" /><path
     id="circle2"
     style="font-variation-settings:'wght' 600;fill:#000000;fill-opacity:1;stroke:#000000;stroke-width:6.66667;stroke-linecap:round;stroke-linejoin:round;stroke-dasharray:none;stroke-opacity:1;paint-order:stroke fill markers"
     d="m 158.43976,570.2642 a 6.7658641,6.7658641 0 0 1 -6.58263,-5.20695 56.487288,56.487288 0 0 1 6.53619,-0.38519 h 0.0963 a 56.487288,56.487288 0 0 1 6.53448,0.38519 6.7658641,6.7658641 0 0 1 -6.58434,5.20695 z" /><rect
     style="font-variation-settings:'wght' 600;fill:#000000;fill-opacity:1;stroke:none;stroke-width:6.66668;stroke-linecap:round;stroke-linejoin:round;stroke-dasharray:none;stroke-opacity:1;paint-order:stroke fill markers"
     id="rect3"
     width="17.989939"
     height="2.8878186"
     x="-600.5799"
     y="-159.88507"
     ry="1.4439093"
     transform="matrix(0,-1,-1,0,0,0)" /><rect
     style="font-variation-settings:'wght' 600;fill:#000000;fill-opacity:1;stroke:none;stroke-width:6.66668;stroke-linecap:round;stroke-linejoin:round;stroke-dasharray:none;stroke-opacity:1;paint-order:stroke fill markers"
     id="rect4"
     width="17.989939"
     height="2.8878186"
     x="-600.5799"
     y="-151.62778"
     ry="1.4439093"
     transform="matrix(0,-1,-1,0,0,0)" /><rect
     style="font-variation-settings:'wght' 600;fill:#000000;fill-opacity:1;stroke:none;stroke-width:6.66668;stroke-linecap:round;stroke-linejoin:round;stroke-dasharray:none;stroke-opacity:1;paint-order:stroke fill markers"
     id="rect5"
     width="17.989939"
     height="2.8878186"
     x="-600.5799"
     y="-168.14238"
     ry="1.4439093"
     transform="matrix(0,-1,-1,0,0,0)" /><rect
     style="font-variation-settings:'wght' 600;fill:#6f727a;fill-opacity:1;stroke:#000000;stroke-width:6.66667;stroke-linecap:round;stroke-linejoin:round;stroke-dasharray:none;stroke-opacity:1;paint-order:stroke fill markers"
     id="rect6"
     width="26.182673"
     height="5.8695679"
     x="145.34984"
     y="-655.33502"
     ry="2.9347839"
     transform="scale(1,-1)" /></g><path
   style="font-variation-settings:'wght' 600;fill:none;fill-opacity:1;stroke:#ff0000;stroke-width:5.00001;stroke-linecap:round;stroke-linejoin:round;stroke-dasharray:none;stroke-opacity:1;marker-end:url(#ArrowWideRounded);paint-order:stroke fill markers"
   d="M 151.1535,668.27416 V 217.11705 H 310.00745 V 812.01591 H 468.86066 V 217.11705"
   id="path12" /><path
   id="rect13"
   style="font-variation-settings:'wght' 600;fill:#fbf5cf;fill-opacity:1;stroke:#000000;stroke-width:13.3334;stroke-linecap:round;stroke-linejoin:round;stroke-dasharray:none;stroke-opacity:1;paint-order:stroke fill markers"
   d="m 762.12524,181.20084 c -5.99819,0 -10.82617,4.82798 -10.82617,10.82617 v 329.20703 h 281.48043 c 1.4992,0 2.7051,1.20592 2.7051,2.70508 v 161.22852 c 0,1.49917 -1.2059,2.70507 -2.7051,2.70507 H 751.29907 v 149.23243 c 0,5.99819 4.82798,10.82812 10.82617,10.82812 h 680.64646 c 5.9982,0 10.8281,-4.82993 10.8281,-10.82812 V 346.28287 h -340.957 c -1.9546,0 -3.5273,-1.57464 -3.5273,-3.5293 V 181.20084 Z" /><g
   id="g21"
   transform="rotate(90,424.4159,1034.5558)"><circle
     style="font-variation-settings:'wght' 600;fill:#7d8289;fill-opacity:1;stroke:#000000;stroke-width:13.3333;stroke-linecap:round;stroke-linejoin:round;stroke-dasharray:none;stroke-opacity:1;paint-order:stroke fill markers"
     id="circle15"
     cx="158.44121"
     cy="-620.91968"
     r="66.146912"
     transform="scale(1,-1)" /><circle
     style="font-variation-settings:'wght' 600;fill:#868a94;fill-opacity:1;stroke:#000000;stroke-width:6.66667;stroke-linecap:round;stroke-linejoin:round;stroke-dasharray:none;stroke-opacity:1;paint-order:stroke fill markers"
     id="circle16"
     cx="158.44121"
     cy="-620.91968"
     r="56.487289"
     transform="scale(1,-1)" /><path
     id="path16"
     style="font-variation-settings:'wght' 600;fill:#868a94;fill-opacity:1;stroke:#000000;stroke-width:6.66667;stroke-linecap:round;stroke-linejoin:round;stroke-dasharray:none;stroke-opacity:1;paint-order:stroke fill markers"
     d="m 134.91736,623.43237 c -9.2946,0 -16.77642,-7.48181 -16.77642,-16.7764 v -25.31766 a 56.487288,56.487288 0 0 1 40.25238,-16.90538 h 0.0963 a 56.487288,56.487288 0 0 1 40.25238,16.90538 v 25.31766 c 0,9.29459 -7.48354,16.7764 -16.77813,16.7764 z" /><circle
     style="font-variation-settings:'wght' 600;fill:#868a94;fill-opacity:1;stroke:#000000;stroke-width:6.66667;stroke-linecap:round;stroke-linejoin:round;stroke-dasharray:none;stroke-opacity:1;paint-order:stroke fill markers"
     id="circle17"
     cx="158.44061"
     cy="-621.67151"
     r="6.7658644"
     transform="scale(1,-1)" /><rect
     style="font-variation-settings:'wght' 600;fill:#868a94;fill-opacity:1;stroke:#000000;stroke-width:6.66667;stroke-linecap:round;stroke-linejoin:round;stroke-dasharray:none;stroke-opacity:1;paint-order:stroke fill markers"
     id="rect17"
     width="39.655312"
     height="19.065054"
     x="138.61353"
     y="-661.9328"
     ry="9.532527"
     transform="scale(1,-1)" /><path
     id="path17"
     style="font-variation-settings:'wght' 600;fill:#000000;fill-opacity:1;stroke:#000000;stroke-width:6.66667;stroke-linecap:round;stroke-linejoin:round;stroke-dasharray:none;stroke-opacity:1;paint-order:stroke fill markers"
     d="m 158.43976,570.2642 a 6.7658641,6.7658641 0 0 1 -6.58263,-5.20695 56.487288,56.487288 0 0 1 6.53619,-0.38519 h 0.0963 a 56.487288,56.487288 0 0 1 6.53448,0.38519 6.7658641,6.7658641 0 0 1 -6.58434,5.20695 z" /><rect
     style="font-variation-settings:'wght' 600;fill:#000000;fill-opacity:1;stroke:none;stroke-width:6.66668;stroke-linecap:round;stroke-linejoin:round;stroke-dasharray:none;stroke-opacity:1;paint-order:stroke fill markers"
     id="rect18"
     width="17.989939"
     height="2.8878186"
     x="-600.5799"
     y="-159.88507"
     ry="1.4439093"
     transform="matrix(0,-1,-1,0,0,0)" /><rect
     style="font-variation-settings:'wght' 600;fill:#000000;fill-opacity:1;stroke:none;stroke-width:6.66668;stroke-linecap:round;stroke-linejoin:round;stroke-dasharray:none;stroke-opacity:1;paint-order:stroke fill markers"
     id="rect19"
     width="17.989939"
     height="2.8878186"
     x="-600.5799"
     y="-151.62778"
     ry="1.4439093"
     transform="matrix(0,-1,-1,0,0,0)" /><rect
     style="font-variation-settings:'wght' 600;fill:#000000;fill-opacity:1;stroke:none;stroke-width:6.66668;stroke-linecap:round;stroke-linejoin:round;stroke-dasharray:none;stroke-opacity:1;paint-order:stroke fill markers"
     id="rect20"
     width="17.989939"
     height="2.8878186"
     x="-600.5799"
     y="-168.14238"
     ry="1.4439093"
     transform="matrix(0,-1,-1,0,0,0)" /><rect
     style="font-variation-settings:'wght' 600;fill:#6f727a;fill-opacity:1;stroke:#000000;stroke-width:6.66667;stroke-linecap:round;stroke-linejoin:round;stroke-dasharray:none;stroke-opacity:1;paint-order:stroke fill markers"
     id="rect21"
     width="26.182673"
     height="5.8695679"
     x="145.34984"
     y="-655.33502"
     ry="2.9347839"
     transform="scale(1,-1)" /></g><path
   style="font-variation-settings:'wght' 600;opacity:1;fill:none;fill-opacity:1;stroke:#ff0000;stroke-width:5;stroke-linecap:round;stroke-linejoin:round;stroke-dasharray:none;stroke-opacity:1;marker-end:url(#marker28);paint-order:stroke fill markers"
   d="m 935.6522,768.5805 429.0052,-10e-6 V 641.46388 H 1116.538 V 533.98035 h 248.1194 V 428.88562 H 831.93229 V 263.46953 h 230.50151"
   id="path27"
   sodipodi:nodetypes="cccccccccc" /><text
   xml:space="preserve"
   style="font-style:normal;font-variant:normal;font-weight:normal;font-stretch:normal;font-size:97.1421px;line-height:1.32;font-family:'Baloo Bhaijaan 2';-inkscape-font-specification:'Baloo Bhaijaan 2, @opsz=32';font-variant-ligatures:normal;font-variant-caps:normal;font-variant-numeric:normal;font-variant-east-asian:normal;font-variation-settings:'opsz' 32;text-align:justify;writing-mode:lr-tb;direction:ltr;text-anchor:start;opacity:1;fill:#000000;fill-opacity:1;stroke:none;stroke-width:5;stroke-linecap:round;stroke-linejoin:round;stroke-dasharray:none;stroke-opacity:1;paint-order:stroke fill markers"
   x="187.56187"
   y="115.73194"
   id="text29"><tspan
     sodipodi:role="line"
     id="tspan29"
     x="187.56187"
     y="115.73194"
     style="stroke-width:5">Case 1</tspan></text><text
   xml:space="preserve"
   style="font-style:normal;font-variant:normal;font-weight:normal;font-stretch:normal;font-size:97.1421px;line-height:1.32;font-family:'Baloo Bhaijaan 2';-inkscape-font-specification:'Baloo Bhaijaan 2, @opsz=32';font-variant-ligatures:normal;font-variant-caps:normal;font-variant-numeric:normal;font-variant-east-asian:normal;font-variation-settings:'opsz' 32;text-align:justify;writing-mode:lr-tb;direction:ltr;text-anchor:start;opacity:1;fill:#000000;fill-opacity:1;stroke:none;stroke-width:5;stroke-linecap:round;stroke-linejoin:round;stroke-dasharray:none;stroke-opacity:1;paint-order:stroke fill markers"
   x="978.05896"
   y="115.73194"
   id="text30"><tspan
     sodipodi:role="line"
     id="tspan30"
     x="978.05896"
     y="115.73194"
     style="stroke-width:5">Case 2</tspan></text></svg>
